<svg viewBox="0 0 240 240" xmlns="http://www.w3.org/2000/svg" role="img" aria-label="פרופ' חכמוני חושב, כנף על המקור"><circle cx="178" cy="46" r="3.5" fill="#C9A0DC" opacity=".6"/><circle cx="194" cy="34" r="4.5" fill="#C9A0DC" opacity=".78"/><circle cx="214" cy="22" r="6.5" fill="#C9A0DC"/><ellipse cx="120" cy="228" rx="60" ry="5" fill="#2D2A26" opacity=".1"/><ellipse cx="120" cy="152" rx="76" ry="76" fill="#6FC3DF"/><ellipse cx="120" cy="172" rx="44" ry="42" fill="#FFA552"/><ellipse cx="48" cy="170" rx="15" ry="32" fill="#5BA8C4" transform="rotate(-10 48 144)"/><ellipse cx="100" cy="222" rx="14" ry="6" fill="#E8851A"/><ellipse cx="140" cy="222" rx="14" ry="6" fill="#E8851A"/><circle cx="92" cy="130" r="22" fill="#FFFCF2"/><circle cx="148" cy="130" r="22" fill="#FFFCF2"/><circle cx="96" cy="124" r="12" fill="#2D2A26"/><circle cx="152" cy="124" r="12" fill="#2D2A26"/><circle cx="100" cy="119" r="4" fill="#FFFCF2"/><circle cx="156" cy="119" r="4" fill="#FFFCF2"/><path d="M 75 105 Q 90 100 108 106" stroke="#2D2A26" stroke-width="3" fill="none" stroke-linecap="round" opacity=".8"/><path d="M 131 106 Q 148 100 164 105" stroke="#2D2A26" stroke-width="3" fill="none" stroke-linecap="round" opacity=".8"/><path d="M 112 152 L 128 152 L 120 164 Z" fill="#E8851A"/><ellipse cx="160" cy="164" rx="11" ry="34" fill="#5BA8C4" transform="rotate(-72 160 164)"/><circle cx="130" cy="155" r="3" fill="#5BA8C4"/><polygon points="120,54 170,72 120,80 70,72" fill="#2D2A26"/><rect x="80" y="74" width="80" height="9" rx="2" fill="#2D2A26"/><circle cx="120" cy="66" r="2.5" fill="#5BA8C4"/><line x1="120" y1="66" x2="172" y2="86" stroke="#C9A0DC" stroke-width="2.5" stroke-linecap="round"/><circle cx="174" cy="88" r="5" fill="#6BCB77"/></svg>
