<svg viewBox="0 0 240 240" xmlns="http://www.w3.org/2000/svg" role="img" aria-label="פרופ' חכמוני חוגג בקפיצה עם כוכבים"><path d="M 36 50 Q 38 56 44 58 Q 38 60 36 66 Q 34 60 28 58 Q 34 56 36 50 Z" fill="#FFD93D"/><path d="M 204 38 Q 207 46 215 48 Q 207 50 204 58 Q 201 50 193 48 Q 201 46 204 38 Z" fill="#FFD93D"/><path d="M 212 130 Q 214 134 218 135 Q 214 136 212 140 Q 210 136 206 135 Q 210 134 212 130 Z" fill="#FFD93D"/><path d="M 28 144 Q 30 149 35 150 Q 30 151 28 156 Q 26 151 21 150 Q 26 149 28 144 Z" fill="#FFD93D"/><path d="M 122 18 Q 124 25 132 27 Q 124 29 122 36 Q 120 29 112 27 Q 120 25 122 18 Z" fill="#FFD93D"/><ellipse cx="120" cy="228" rx="50" ry="4" fill="#2D2A26" opacity=".08"/><ellipse cx="36" cy="118" rx="13" ry="30" fill="#5BA8C4" transform="rotate(-38 36 118)"/><ellipse cx="204" cy="118" rx="13" ry="30" fill="#5BA8C4" transform="rotate(38 204 118)"/><ellipse cx="120" cy="148" rx="76" ry="76" fill="#6FC3DF"/><ellipse cx="120" cy="168" rx="44" ry="42" fill="#FFA552"/><ellipse cx="96" cy="220" rx="13" ry="6" fill="#E8851A" transform="rotate(-8 96 220)"/><ellipse cx="144" cy="220" rx="13" ry="6" fill="#E8851A" transform="rotate(8 144 220)"/><circle cx="92" cy="126" r="22" fill="#FFFCF2"/><circle cx="148" cy="126" r="22" fill="#FFFCF2"/><path d="M 80 130 Q 92 116 104 130" stroke="#2D2A26" stroke-width="4" fill="none" stroke-linecap="round"/><path d="M 136 130 Q 148 116 160 130" stroke="#2D2A26" stroke-width="4" fill="none" stroke-linecap="round"/><path d="M 112 148 L 128 148 L 120 162 Z" fill="#E8851A"/><g transform="rotate(-6 120 70)"><polygon points="120,50 170,68 120,76 70,68" fill="#2D2A26"/><rect x="80" y="70" width="80" height="9" rx="2" fill="#2D2A26"/><circle cx="120" cy="62" r="2.5" fill="#5BA8C4"/><line x1="120" y1="62" x2="172" y2="82" stroke="#C9A0DC" stroke-width="2.5" stroke-linecap="round"/><circle cx="174" cy="84" r="5" fill="#6BCB77"/></g></svg>
