<svg viewBox="0 0 240 240" xmlns="http://www.w3.org/2000/svg" role="img" aria-label="פרופ' חכמוני מעודד עם כנף מורמת"><ellipse cx="120" cy="228" rx="60" ry="5" fill="#2D2A26" opacity=".1"/><ellipse cx="38" cy="128" rx="13" ry="30" fill="#5BA8C4" transform="rotate(-18 38 148)"/><path d="M 26 90 Q 22 84 18 88 Q 16 92 26 100 Q 36 92 34 88 Q 30 84 26 90 Z" fill="#C9A0DC"/><ellipse cx="120" cy="152" rx="76" ry="76" fill="#6FC3DF"/><ellipse cx="120" cy="172" rx="44" ry="42" fill="#FFA552"/><ellipse cx="192" cy="170" rx="15" ry="32" fill="#5BA8C4" transform="rotate(10 192 144)"/><ellipse cx="100" cy="222" rx="14" ry="6" fill="#E8851A"/><ellipse cx="140" cy="222" rx="14" ry="6" fill="#E8851A"/><ellipse cx="66" cy="150" rx="9" ry="6" fill="#FF6B6B" opacity=".4"/><ellipse cx="174" cy="150" rx="9" ry="6" fill="#FF6B6B" opacity=".4"/><circle cx="92" cy="130" r="22" fill="#FFFCF2"/><circle cx="148" cy="130" r="22" fill="#FFFCF2"/><path d="M 78 134 Q 92 118 106 134" stroke="#2D2A26" stroke-width="4" fill="none" stroke-linecap="round"/><path d="M 134 134 Q 148 118 162 134" stroke="#2D2A26" stroke-width="4" fill="none" stroke-linecap="round"/><path d="M 112 152 L 128 152 L 120 164 Z" fill="#E8851A"/><polygon points="120,54 170,72 120,80 70,72" fill="#2D2A26"/><rect x="80" y="74" width="80" height="9" rx="2" fill="#2D2A26"/><circle cx="120" cy="66" r="2.5" fill="#5BA8C4"/><line x1="120" y1="66" x2="172" y2="86" stroke="#C9A0DC" stroke-width="2.5" stroke-linecap="round"/><circle cx="174" cy="88" r="5" fill="#6BCB77"/></svg>
