<svg viewBox="0 0 240 240" xmlns="http://www.w3.org/2000/svg" role="img" aria-label="פרופ' חכמוני ישן, אותיות Z מעליו"><text x="172" y="62" font-family="Heebo,Varela Round,sans-serif" font-size="16" font-weight="800" fill="#C9A0DC" direction="ltr">z</text><text x="190" y="44" font-family="Heebo,Varela Round,sans-serif" font-size="22" font-weight="800" fill="#C9A0DC" direction="ltr">z</text><text x="210" y="22" font-family="Heebo,Varela Round,sans-serif" font-size="30" font-weight="800" fill="#C9A0DC" direction="ltr">Z</text><ellipse cx="120" cy="228" rx="60" ry="5" fill="#2D2A26" opacity=".1"/><ellipse cx="120" cy="154" rx="76" ry="74" fill="#6FC3DF"/><ellipse cx="120" cy="174" rx="44" ry="40" fill="#FFA552"/><ellipse cx="48" cy="172" rx="15" ry="32" fill="#5BA8C4" transform="rotate(-8 48 148)"/><ellipse cx="192" cy="172" rx="15" ry="32" fill="#5BA8C4" transform="rotate(8 192 148)"/><ellipse cx="100" cy="222" rx="14" ry="6" fill="#E8851A"/><ellipse cx="140" cy="222" rx="14" ry="6" fill="#E8851A"/><path d="M 76 132 Q 92 124 108 132" stroke="#2D2A26" stroke-width="3.5" fill="none" stroke-linecap="round"/><path d="M 132 132 Q 148 124 164 132" stroke="#2D2A26" stroke-width="3.5" fill="none" stroke-linecap="round"/><path d="M 104 132 L 110 138" stroke="#2D2A26" stroke-width="2" stroke-linecap="round" opacity=".6"/><path d="M 160 132 L 166 138" stroke="#2D2A26" stroke-width="2" stroke-linecap="round" opacity=".6"/><path d="M 112 152 L 128 152 L 120 164 Z" fill="#E8851A"/><g transform="rotate(-12 120 72)"><polygon points="120,54 170,72 120,80 70,72" fill="#2D2A26"/><rect x="80" y="74" width="80" height="9" rx="2" fill="#2D2A26"/><circle cx="120" cy="66" r="2.5" fill="#5BA8C4"/><line x1="120" y1="66" x2="172" y2="86" stroke="#C9A0DC" stroke-width="2.5" stroke-linecap="round"/><circle cx="174" cy="88" r="5" fill="#6BCB77"/></g></svg>
