<svg width="300" height="80" viewBox="0 0 300 80" xmlns="http://www.w3.org/2000/svg" aria-label="חכמוני">
  <g transform="translate(254,40)">
    <rect x="-28" y="-28" width="56" height="56" rx="14" fill="#6FC3DF"/>
    <path d="M -18,4 Q -18,-10 -2,-8 L -2,12 Q -18,10 -18,12 Z" fill="#FFFCF2"/>
    <path d="M  18,4 Q  18,-10  2,-8 L  2,12 Q  18,10  18,12 Z" fill="#FFFCF2"/>
    <line x1="-2" y1="-8" x2="-2" y2="12" stroke="#2D2A26" stroke-width="1.3"/>
    <line x1=" 2" y1="-8" x2=" 2" y2="12" stroke="#2D2A26" stroke-width="1.3"/>
    <line x1="-14" y1="0" x2="-6" y2="-0.6" stroke="#2D2A26" stroke-width="1" stroke-linecap="round" opacity=".55"/>
    <line x1="-14" y1="4" x2="-6" y2="3.4" stroke="#2D2A26" stroke-width="1" stroke-linecap="round" opacity=".55"/>
    <line x1=" 6" y1="-0.6" x2=" 14" y2="0" stroke="#2D2A26" stroke-width="1" stroke-linecap="round" opacity=".55"/>
    <line x1=" 6" y1=" 3.4" x2=" 14" y2="4" stroke="#2D2A26" stroke-width="1" stroke-linecap="round" opacity=".55"/>
    <path d="M 0,-22 L 2.6,-15.4 L 9.6,-15 L 4.2,-10.7 L 6,-4 L 0,-7.8 L -6,-4 L -4.2,-10.7 L -9.6,-15 L -2.6,-15.4 Z" fill="#FFD93D" stroke="#2D2A26" stroke-width="1.3" stroke-linejoin="round"/>
  </g>
  <text x="218" y="54" text-anchor="start" direction="rtl" font-family="'Varela Round', sans-serif" font-size="48" fill="#2D2A26" letter-spacing="-1">חכמוני</text>
  <circle cx="80" cy="62" r="3" fill="#6BCB77"/>
  <circle cx="92" cy="62" r="3" fill="#FFD93D"/>
  <circle cx="104" cy="62" r="3" fill="#FF6B6B"/>
</svg>
