<svg width="48" height="48" viewBox="0 0 100 100" xmlns="http://www.w3.org/2000/svg" role="img" aria-label="פרופ' חכמוני"><ellipse cx="50" cy="96" rx="26" ry="2" fill="#2D2A26" opacity=".12"/><ellipse cx="18" cy="42" rx="6" ry="14" fill="#5BA8C4" transform="rotate(-26 18 42)"/><circle cx="50" cy="58" r="32" fill="#6FC3DF"/><ellipse cx="50" cy="66" rx="18" ry="17" fill="#FFA552"/><ellipse cx="84" cy="58" rx="6" ry="14" fill="#5BA8C4" transform="rotate(18 84 58)"/><ellipse cx="42" cy="93" rx="6" ry="2.5" fill="#E8851A"/><ellipse cx="58" cy="93" rx="6" ry="2.5" fill="#E8851A"/><circle cx="39" cy="50" r="9.5" fill="#FFFCF2"/><circle cx="61" cy="50" r="9.5" fill="#FFFCF2"/><circle cx="39" cy="50" r="5" fill="#2D2A26"/><circle cx="61" cy="50" r="5" fill="#2D2A26"/><circle cx="40.5" cy="48" r="1.7" fill="#FFFCF2"/><circle cx="62.5" cy="48" r="1.7" fill="#FFFCF2"/><path d="M46.5 60 L53.5 60 L50 65.5 Z" fill="#E8851A"/><polygon points="50,12 78,24 50,30 22,24" fill="#2D2A26"/><rect x="29" y="25" width="42" height="4" rx="1.2" fill="#2D2A26"/><line x1="50" y1="18" x2="78" y2="30" stroke="#C9A0DC" stroke-width="2" stroke-linecap="round"/><circle cx="80" cy="31" r="3" fill="#6BCB77"/></svg>
