<?xml version="1.0" encoding="UTF-8"?>
<svg xmlns="http://www.w3.org/2000/svg" viewBox="0 0 240 240" role="img" aria-label="פרופ' חכמוני חושב">
  <title>פרופ' חכמוני חושב</title>
  <circle cx="200" cy="62" r="14" fill="#FFFCF2" stroke="#2D2A26" stroke-width="2.5"/>
  <circle cx="220" cy="40" r="8" fill="#FFFCF2" stroke="#2D2A26" stroke-width="2.5"/>
  <circle cx="230" cy="22" r="5" fill="#FFFCF2" stroke="#2D2A26" stroke-width="2.5"/>
  <ellipse cx="120" cy="130" rx="78" ry="88" fill="#6FC3DF" stroke="#2D2A26" stroke-width="4"/>
  <ellipse cx="120" cy="165" rx="48" ry="50" fill="#FFA552"/>
  <path d="M 50 138 Q 42 170 58 195 Q 70 185 73 165 Q 68 145 50 138 Z" fill="#6FC3DF" stroke="#2D2A26" stroke-width="3"/>
  <path d="M 192 130 Q 178 112 152 116 Q 138 124 144 138 Q 162 148 182 148 Q 198 142 192 130 Z" fill="#6FC3DF" stroke="#2D2A26" stroke-width="3"/>
  <ellipse cx="120" cy="55" rx="46" ry="13" fill="#2D2A26"/>
  <polygon points="65,48 120,32 175,48 120,62" fill="#2D2A26"/>
  <circle cx="120" cy="32" r="7" fill="#6BCB77" stroke="#2D2A26" stroke-width="2"/>
  <circle cx="95" cy="108" r="22" fill="#FFFCF2" stroke="#2D2A26" stroke-width="3"/>
  <circle cx="145" cy="108" r="22" fill="#FFFCF2" stroke="#2D2A26" stroke-width="3"/>
  <circle cx="97" cy="101" r="10" fill="#2D2A26"/>
  <circle cx="147" cy="101" r="10" fill="#2D2A26"/>
  <circle cx="100" cy="97" r="3.5" fill="#FFFCF2"/>
  <circle cx="150" cy="97" r="3.5" fill="#FFFCF2"/>
  <path d="M 120 128 L 109 142 L 130 140 Z" fill="#FFA552" stroke="#2D2A26" stroke-width="2" stroke-linejoin="round"/>
  <path d="M 110 160 L 130 160" stroke="#2D2A26" stroke-width="3" stroke-linecap="round"/>
  <ellipse cx="100" cy="220" rx="10" ry="5" fill="#FFA552" stroke="#2D2A26" stroke-width="2"/>
  <ellipse cx="140" cy="220" rx="10" ry="5" fill="#FFA552" stroke="#2D2A26" stroke-width="2"/>
</svg>
