<?xml version="1.0" encoding="UTF-8"?>
<svg xmlns="http://www.w3.org/2000/svg" viewBox="0 0 240 240" role="img" aria-label="פרופ' חכמוני חוגג בשמחה">
  <title>פרופ' חכמוני חוגג בשמחה</title>
  <path d="M 30 50 L 35 60 L 45 65 L 35 70 L 30 80 L 25 70 L 15 65 L 25 60 Z" fill="#FFD93D" stroke="#2D2A26" stroke-width="1.5"/>
  <path d="M 210 40 L 215 50 L 225 55 L 215 60 L 210 70 L 205 60 L 195 55 L 205 50 Z" fill="#6BCB77" stroke="#2D2A26" stroke-width="1.5"/>
  <path d="M 215 115 L 219 122 L 226 124 L 219 127 L 215 134 L 211 127 L 204 124 L 211 122 Z" fill="#C9A0DC" stroke="#2D2A26" stroke-width="1.5"/>
  <path d="M 22 130 L 27 137 L 35 140 L 27 143 L 22 150 L 17 143 L 9 140 L 17 137 Z" fill="#FF6B6B" stroke="#2D2A26" stroke-width="1.5"/>
  <path d="M 55 22 L 58 28 L 64 30 L 58 32 L 55 38 L 52 32 L 46 30 L 52 28 Z" fill="#FFD93D" stroke="#2D2A26" stroke-width="1.5"/>
  <ellipse cx="120" cy="130" rx="78" ry="88" fill="#6FC3DF" stroke="#2D2A26" stroke-width="4"/>
  <ellipse cx="120" cy="165" rx="48" ry="50" fill="#FFA552"/>
  <path d="M 52 130 Q 32 92 28 62 Q 30 50 42 56 Q 54 78 68 110 Q 74 128 52 130 Z" fill="#6FC3DF" stroke="#2D2A26" stroke-width="3"/>
  <path d="M 188 130 Q 208 92 212 62 Q 210 50 198 56 Q 186 78 172 110 Q 166 128 188 130 Z" fill="#6FC3DF" stroke="#2D2A26" stroke-width="3"/>
  <ellipse cx="120" cy="55" rx="46" ry="13" fill="#2D2A26"/>
  <polygon points="65,48 120,32 175,48 120,62" fill="#2D2A26"/>
  <circle cx="120" cy="32" r="7" fill="#6BCB77" stroke="#2D2A26" stroke-width="2"/>
  <path d="M 76 112 Q 95 96 114 112" fill="none" stroke="#2D2A26" stroke-width="4" stroke-linecap="round"/>
  <path d="M 126 112 Q 145 96 164 112" fill="none" stroke="#2D2A26" stroke-width="4" stroke-linecap="round"/>
  <path d="M 120 130 Q 108 145 113 152 Q 120 158 127 152 Q 132 145 120 130 Z" fill="#FFA552" stroke="#2D2A26" stroke-width="2"/>
  <path d="M 100 162 Q 120 178 140 162" fill="#B91C1C" stroke="#2D2A26" stroke-width="3" stroke-linecap="round" stroke-linejoin="round"/>
  <ellipse cx="100" cy="220" rx="10" ry="5" fill="#FFA552" stroke="#2D2A26" stroke-width="2"/>
  <ellipse cx="140" cy="220" rx="10" ry="5" fill="#FFA552" stroke="#2D2A26" stroke-width="2"/>
</svg>
