<svg width="300" height="80" viewBox="0 0 300 80" xmlns="http://www.w3.org/2000/svg" aria-label="חכמוני">
  <g transform="translate(254,40)">
    <circle cx="0" cy="0" r="30" fill="#C9A0DC"/>
    <path d="M -18,-24 L -12,-32 L -8,-22 Z" fill="#C9A0DC"/>
    <path d="M  18,-24 L  12,-32 L  8,-22 Z" fill="#C9A0DC"/>
    <ellipse cx="0" cy="6" rx="18" ry="16" fill="#FFFCF2"/>
    <circle cx="-9" cy="-4" r="9" fill="#FFFCF2"/>
    <circle cx=" 9" cy="-4" r="9" fill="#FFFCF2"/>
    <circle cx="-9" cy="-4" r="9" fill="none" stroke="#2D2A26" stroke-width="2"/>
    <circle cx=" 9" cy="-4" r="9" fill="none" stroke="#2D2A26" stroke-width="2"/>
    <line x1="-1" y1="-4" x2="1" y2="-4" stroke="#2D2A26" stroke-width="2"/>
    <circle cx="-9" cy="-3" r="3.2" fill="#2D2A26"/>
    <circle cx=" 9" cy="-3" r="3.2" fill="#2D2A26"/>
    <circle cx="-7.8" cy="-4.2" r="1.1" fill="#FFFCF2"/>
    <circle cx=" 10.2" cy="-4.2" r="1.1" fill="#FFFCF2"/>
    <path d="M -3,6 L 3,6 L 0,12 Z" fill="#FFD93D" stroke="#2D2A26" stroke-width="1.2" stroke-linejoin="round"/>
  </g>
  <text x="218" y="54" text-anchor="start" direction="rtl" font-family="'Varela Round', sans-serif" font-size="48" fill="#2D2A26" letter-spacing="-1">חכמוני</text>
  <rect x="84" y="60" width="134" height="4" rx="2" fill="#FF6B6B"/>
</svg>
