<svg viewBox="0 0 200 200" xmlns="http://www.w3.org/2000/svg" role="img" aria-label="אווטאר חתול"><circle cx="100" cy="100" r="100" fill="#FFD8B0"/><path d="M 56 78 L 72 46 L 88 80 Z" fill="#FFFCF2"/><path d="M 144 78 L 128 46 L 112 80 Z" fill="#FFFCF2"/><path d="M 66 76 L 72 58 L 82 76 Z" fill="#FF6B6B" opacity=".55"/><path d="M 134 76 L 128 58 L 118 76 Z" fill="#FF6B6B" opacity=".55"/><ellipse cx="100" cy="122" rx="57" ry="52" fill="#FFFCF2"/><ellipse cx="62" cy="146" rx="12" ry="8" fill="#FF6B6B" opacity=".3"/><ellipse cx="138" cy="146" rx="12" ry="8" fill="#FF6B6B" opacity=".3"/><circle cx="80" cy="126" r="13" fill="#2D2A26"/><circle cx="120" cy="126" r="13" fill="#2D2A26"/><circle cx="84" cy="121" r="5" fill="#FFFCF2"/><circle cx="124" cy="121" r="5" fill="#FFFCF2"/><circle cx="76" cy="130" r="2.2" fill="#FFFCF2" opacity=".85"/><circle cx="116" cy="130" r="2.2" fill="#FFFCF2" opacity=".85"/><path d="M 96 138 L 104 138 L 100 144 Z" fill="#FF6B6B"/><path d="M 91 149 Q 100 157 109 149" stroke="#2D2A26" stroke-width="2.4" fill="none" stroke-linecap="round"/></svg>
