<svg viewBox="0 0 200 200" xmlns="http://www.w3.org/2000/svg" role="img" aria-label="אווטאר דג"><circle cx="100" cy="100" r="100" fill="#BFE2F0"/><circle cx="170" cy="60" r="5" fill="#FFFCF2" opacity=".75"/><circle cx="180" cy="40" r="3" fill="#FFFCF2" opacity=".6"/><circle cx="160" cy="80" r="3" fill="#FFFCF2" opacity=".7"/><path d="M 140 80 L 180 50 L 180 150 L 140 120 Z" fill="#5BA8C4"/><path d="M 30 100 Q 50 60 100 70 Q 145 80 150 100 Q 145 120 100 130 Q 50 140 30 100 Z" fill="#6FC3DF"/><path d="M 65 70 L 90 45 L 105 70 Z" fill="#5BA8C4"/><path d="M 70 130 L 90 155 L 110 130 Z" fill="#5BA8C4"/><path d="M 80 105 Q 70 120 85 125 Q 95 122 90 110 Z" fill="#5BA8C4"/><path d="M 70 90 Q 80 95 90 90" stroke="#5BA8C4" stroke-width="1.5" fill="none" opacity=".4"/><path d="M 90 90 Q 100 95 110 90" stroke="#5BA8C4" stroke-width="1.5" fill="none" opacity=".4"/><path d="M 110 90 Q 120 95 130 90" stroke="#5BA8C4" stroke-width="1.5" fill="none" opacity=".4"/><path d="M 70 105 Q 80 110 90 105" stroke="#5BA8C4" stroke-width="1.5" fill="none" opacity=".4"/><path d="M 90 105 Q 100 110 110 105" stroke="#5BA8C4" stroke-width="1.5" fill="none" opacity=".4"/><path d="M 110 105 Q 120 110 130 105" stroke="#5BA8C4" stroke-width="1.5" fill="none" opacity=".4"/><path d="M 55 90 Q 50 100 55 110" stroke="#5BA8C4" stroke-width="2.2" fill="none" opacity=".6"/><circle cx="50" cy="92" r="13" fill="#FFFCF2"/><circle cx="48" cy="92" r="7.5" fill="#2D2A26"/><circle cx="51" cy="89" r="3" fill="#FFFCF2"/><path d="M 32 105 Q 38 112 44 108" stroke="#2D2A26" stroke-width="2.2" fill="none" stroke-linecap="round"/></svg>
