<svg viewBox="0 0 200 200" xmlns="http://www.w3.org/2000/svg" role="img" aria-label="אווטאר ינשוף"><circle cx="100" cy="100" r="100" fill="#D8C5E5"/><path d="M 52 80 L 60 28 L 80 78 Z" fill="#8B6B4A"/><path d="M 148 80 L 140 28 L 120 78 Z" fill="#8B6B4A"/><ellipse cx="100" cy="120" rx="68" ry="62" fill="#B8956F"/><ellipse cx="42" cy="148" rx="14" ry="30" fill="#8B6B4A" transform="rotate(8 42 148)"/><ellipse cx="158" cy="148" rx="14" ry="30" fill="#8B6B4A" transform="rotate(-8 158 148)"/><ellipse cx="100" cy="150" rx="36" ry="28" fill="#E8D5B7"/><circle cx="74" cy="108" r="26" fill="#FFFCF2"/><circle cx="126" cy="108" r="26" fill="#FFFCF2"/><circle cx="74" cy="108" r="16" fill="#2D2A26"/><circle cx="126" cy="108" r="16" fill="#2D2A26"/><circle cx="79" cy="103" r="6" fill="#FFFCF2"/><circle cx="131" cy="103" r="6" fill="#FFFCF2"/><circle cx="69" cy="113" r="2.5" fill="#FFFCF2" opacity=".85"/><circle cx="121" cy="113" r="2.5" fill="#FFFCF2" opacity=".85"/><path d="M 96 138 L 104 138 L 102 148 Q 100 152 98 148 Z" fill="#E8851A"/></svg>
