<svg viewBox="0 0 200 200" xmlns="http://www.w3.org/2000/svg" role="img" aria-label="אווטאר ארנב"><circle cx="100" cy="100" r="100" fill="#F9CBD6"/><ellipse cx="78" cy="60" rx="19" ry="40" fill="#FFFCF2" transform="rotate(-12 78 60)"/><ellipse cx="122" cy="60" rx="19" ry="40" fill="#FFFCF2" transform="rotate(12 122 60)"/><ellipse cx="78" cy="62" rx="10" ry="25" fill="#F4A6B8" transform="rotate(-12 78 62)"/><ellipse cx="122" cy="62" rx="10" ry="25" fill="#F4A6B8" transform="rotate(12 122 62)"/><ellipse cx="100" cy="124" rx="58" ry="53" fill="#FFFCF2"/><ellipse cx="62" cy="147" rx="12" ry="8" fill="#FF6B6B" opacity=".3"/><ellipse cx="138" cy="147" rx="12" ry="8" fill="#FF6B6B" opacity=".3"/><circle cx="78" cy="128" r="14" fill="#2D2A26"/><circle cx="122" cy="128" r="14" fill="#2D2A26"/><circle cx="82.5" cy="123" r="5.5" fill="#FFFCF2"/><circle cx="126.5" cy="123" r="5.5" fill="#FFFCF2"/><circle cx="73" cy="132" r="2.4" fill="#FFFCF2" opacity=".85"/><circle cx="117" cy="132" r="2.4" fill="#FFFCF2" opacity=".85"/><path d="M 94 137 Q 100 134.5 106 137 Q 104 143 100 145 Q 96 143 94 137 Z" fill="#FF6B6B"/><path d="M 91 150 Q 100 159 109 150" stroke="#2D2A26" stroke-width="2.5" fill="none" stroke-linecap="round"/></svg>
