<svg viewBox="0 0 200 200" xmlns="http://www.w3.org/2000/svg" role="img" aria-label="אווטאר פיל"><circle cx="100" cy="100" r="100" fill="#C5D4E0"/><ellipse cx="30" cy="108" rx="32" ry="55" fill="#B0B8C4"/><ellipse cx="170" cy="108" rx="32" ry="55" fill="#B0B8C4"/><ellipse cx="36" cy="110" rx="18" ry="40" fill="#F4A6B8"/><ellipse cx="164" cy="110" rx="18" ry="40" fill="#F4A6B8"/><ellipse cx="100" cy="105" rx="40" ry="42" fill="#D0D6E0"/><path d="M 100 130 Q 84 165 105 185 Q 130 192 138 170 Q 140 155 128 152" stroke="#D0D6E0" stroke-width="22" fill="none" stroke-linecap="round" stroke-linejoin="round"/><circle cx="130" cy="155" r="1.8" fill="#2D2A26"/><circle cx="82" cy="96" r="8" fill="#2D2A26"/><circle cx="118" cy="96" r="8" fill="#2D2A26"/><circle cx="85" cy="93" r="3" fill="#FFFCF2"/><circle cx="121" cy="93" r="3" fill="#FFFCF2"/><circle cx="79" cy="99" r="1.5" fill="#FFFCF2" opacity=".85"/><circle cx="115" cy="99" r="1.5" fill="#FFFCF2" opacity=".85"/><path d="M 92 122 Q 100 128 108 122" stroke="#2D2A26" stroke-width="2.2" fill="none" stroke-linecap="round"/></svg>
