<svg viewBox="0 0 200 200" xmlns="http://www.w3.org/2000/svg" role="img" aria-label="אווטאר אריה"><circle cx="100" cy="100" r="100" fill="#FFE69A"/><g fill="#E8851A"><ellipse cx="100" cy="58" rx="18" ry="32"/><ellipse cx="135.4" cy="72.6" rx="18" ry="32" transform="rotate(45 135.4 72.6)"/><ellipse cx="150" cy="108" rx="18" ry="32" transform="rotate(90 150 108)"/><ellipse cx="135.4" cy="143.4" rx="18" ry="32" transform="rotate(135 135.4 143.4)"/><ellipse cx="100" cy="158" rx="18" ry="32"/><ellipse cx="64.6" cy="143.4" rx="18" ry="32" transform="rotate(45 64.6 143.4)"/><ellipse cx="50" cy="108" rx="18" ry="32" transform="rotate(90 50 108)"/><ellipse cx="64.6" cy="72.6" rx="18" ry="32" transform="rotate(-45 64.6 72.6)"/></g><circle cx="100" cy="108" r="55" fill="#E8851A"/><circle cx="52" cy="108" r="11" fill="#FFFCF2"/><circle cx="148" cy="108" r="11" fill="#FFFCF2"/><circle cx="52" cy="110" r="6" fill="#FF6B6B" opacity=".5"/><circle cx="148" cy="110" r="6" fill="#FF6B6B" opacity=".5"/><ellipse cx="100" cy="118" rx="42" ry="38" fill="#FFFCF2"/><ellipse cx="68" cy="134" rx="9" ry="6" fill="#FF6B6B" opacity=".3"/><ellipse cx="132" cy="134" rx="9" ry="6" fill="#FF6B6B" opacity=".3"/><circle cx="82" cy="115" r="11" fill="#2D2A26"/><circle cx="118" cy="115" r="11" fill="#2D2A26"/><circle cx="85" cy="111" r="4" fill="#FFFCF2"/><circle cx="121" cy="111" r="4" fill="#FFFCF2"/><circle cx="78" cy="118" r="1.8" fill="#FFFCF2" opacity=".85"/><circle cx="114" cy="118" r="1.8" fill="#FFFCF2" opacity=".85"/><path d="M 94 130 L 106 130 L 100 138 Z" fill="#2D2A26"/><line x1="100" y1="138" x2="100" y2="142" stroke="#2D2A26" stroke-width="1.5" stroke-linecap="round"/><path d="M 88 146 Q 100 154 112 146" stroke="#2D2A26" stroke-width="2.4" fill="none" stroke-linecap="round"/></svg>
