<svg viewBox="0 0 200 200" xmlns="http://www.w3.org/2000/svg" role="img" aria-label="אווטאר פרפר"><circle cx="100" cy="100" r="100" fill="#FFFFFF"/><circle cx="40" cy="50" r="4" fill="#C9A0DC" opacity=".4"/><circle cx="160" cy="60" r="3" fill="#FF6B6B" opacity=".4"/><circle cx="170" cy="140" r="4" fill="#C9A0DC" opacity=".4"/><circle cx="30" cy="150" r="3" fill="#FF6B6B" opacity=".4"/><circle cx="50" cy="170" r="3" fill="#C9A0DC" opacity=".3"/><circle cx="150" cy="35" r="3" fill="#FF6B6B" opacity=".3"/><ellipse cx="55" cy="85" rx="32" ry="24" fill="#C9A0DC"/><ellipse cx="145" cy="85" rx="32" ry="24" fill="#C9A0DC"/><ellipse cx="62" cy="135" rx="24" ry="18" fill="#FF6B6B" opacity=".75"/><ellipse cx="138" cy="135" rx="24" ry="18" fill="#FF6B6B" opacity=".75"/><circle cx="55" cy="85" r="6" fill="#FFFCF2" opacity=".6"/><circle cx="145" cy="85" r="6" fill="#FFFCF2" opacity=".6"/><ellipse cx="100" cy="115" rx="7" ry="30" fill="#2D2A26"/><circle cx="100" cy="80" r="11" fill="#2D2A26"/><path d="M 94 73 Q 88 60 84 55" stroke="#2D2A26" stroke-width="2" fill="none" stroke-linecap="round"/><path d="M 106 73 Q 112 60 116 55" stroke="#2D2A26" stroke-width="2" fill="none" stroke-linecap="round"/><circle cx="84" cy="55" r="3" fill="#2D2A26"/><circle cx="116" cy="55" r="3" fill="#2D2A26"/><circle cx="97" cy="78" r="2" fill="#FFFCF2"/><circle cx="103" cy="78" r="2" fill="#FFFCF2"/></svg>
